<mxfile host="app.diagrams.net" modified="2023-06-01T15:40:35.997Z" agent="Mozilla/5.0 (Windows NT 10.0; Win64; x64) AppleWebKit/537.36 (KHTML, like Gecko) Chrome/113.0.0.0 Safari/537.36" etag="RJJ9RjtjHYAzy6lyXDEM" version="21.3.6" type="github">
  <diagram id="C5RBs43oDa-KdzZeNtuy" name="Page-1">
    <mxGraphModel dx="2074" dy="1116" grid="1" gridSize="10" guides="1" tooltips="1" connect="1" arrows="1" fold="1" page="1" pageScale="1" pageWidth="827" pageHeight="1169" math="0" shadow="0">
      <root>
        <mxCell id="WIyWlLk6GJQsqaUBKTNV-0" />
        <mxCell id="WIyWlLk6GJQsqaUBKTNV-1" parent="WIyWlLk6GJQsqaUBKTNV-0" />
        <mxCell id="fvo4OO7bao2VhtzqRqrc-16" style="edgeStyle=orthogonalEdgeStyle;rounded=0;orthogonalLoop=1;jettySize=auto;html=1;dashed=1;endArrow=none;endFill=0;" edge="1" parent="WIyWlLk6GJQsqaUBKTNV-1" source="fvo4OO7bao2VhtzqRqrc-11">
          <mxGeometry relative="1" as="geometry">
            <mxPoint x="115" y="1040" as="targetPoint" />
          </mxGeometry>
        </mxCell>
        <mxCell id="fvo4OO7bao2VhtzqRqrc-11" value="&lt;font style=&quot;font-size: 14px;&quot;&gt;云天智投&lt;/font&gt;" style="rounded=0;whiteSpace=wrap;html=1;" vertex="1" parent="WIyWlLk6GJQsqaUBKTNV-1">
          <mxGeometry x="60" y="220" width="110" height="50" as="geometry" />
        </mxCell>
        <mxCell id="fvo4OO7bao2VhtzqRqrc-17" style="edgeStyle=orthogonalEdgeStyle;rounded=0;orthogonalLoop=1;jettySize=auto;html=1;dashed=1;endArrow=none;endFill=0;" edge="1" parent="WIyWlLk6GJQsqaUBKTNV-1" source="fvo4OO7bao2VhtzqRqrc-12">
          <mxGeometry relative="1" as="geometry">
            <mxPoint x="414" y="1040" as="targetPoint" />
          </mxGeometry>
        </mxCell>
        <mxCell id="fvo4OO7bao2VhtzqRqrc-12" value="&lt;font style=&quot;font-size: 14px;&quot;&gt;骏伯爬虫&lt;/font&gt;" style="rounded=0;whiteSpace=wrap;html=1;" vertex="1" parent="WIyWlLk6GJQsqaUBKTNV-1">
          <mxGeometry x="359" y="220" width="110" height="50" as="geometry" />
        </mxCell>
        <mxCell id="fvo4OO7bao2VhtzqRqrc-18" style="edgeStyle=orthogonalEdgeStyle;rounded=0;orthogonalLoop=1;jettySize=auto;html=1;endArrow=none;endFill=0;dashed=1;" edge="1" parent="WIyWlLk6GJQsqaUBKTNV-1" source="fvo4OO7bao2VhtzqRqrc-27">
          <mxGeometry relative="1" as="geometry">
            <mxPoint x="725" y="1040" as="targetPoint" />
          </mxGeometry>
        </mxCell>
        <mxCell id="fvo4OO7bao2VhtzqRqrc-13" value="&lt;font style=&quot;font-size: 14px;&quot;&gt;数据侧&lt;/font&gt;" style="rounded=0;whiteSpace=wrap;html=1;" vertex="1" parent="WIyWlLk6GJQsqaUBKTNV-1">
          <mxGeometry x="670" y="220" width="110" height="50" as="geometry" />
        </mxCell>
        <mxCell id="fvo4OO7bao2VhtzqRqrc-19" style="edgeStyle=orthogonalEdgeStyle;rounded=0;orthogonalLoop=1;jettySize=auto;html=1;dashed=1;endArrow=none;endFill=0;" edge="1" parent="WIyWlLk6GJQsqaUBKTNV-1" source="fvo4OO7bao2VhtzqRqrc-41">
          <mxGeometry relative="1" as="geometry">
            <mxPoint x="1075" y="1040" as="targetPoint" />
          </mxGeometry>
        </mxCell>
        <mxCell id="fvo4OO7bao2VhtzqRqrc-14" value="&lt;font style=&quot;font-size: 14px;&quot;&gt;创意管理平台&lt;/font&gt;" style="rounded=0;whiteSpace=wrap;html=1;" vertex="1" parent="WIyWlLk6GJQsqaUBKTNV-1">
          <mxGeometry x="1020" y="220" width="110" height="50" as="geometry" />
        </mxCell>
        <mxCell id="fvo4OO7bao2VhtzqRqrc-20" value="" style="endArrow=classic;html=1;rounded=0;" edge="1" parent="WIyWlLk6GJQsqaUBKTNV-1">
          <mxGeometry width="50" height="50" relative="1" as="geometry">
            <mxPoint x="120" y="320" as="sourcePoint" />
            <mxPoint x="410" y="320" as="targetPoint" />
          </mxGeometry>
        </mxCell>
        <mxCell id="fvo4OO7bao2VhtzqRqrc-21" value="&lt;font style=&quot;font-size: 14px;&quot;&gt;1.云天提供所有上传到了云天的素材md5&lt;/font&gt;" style="edgeLabel;html=1;align=center;verticalAlign=middle;resizable=0;points=[];" vertex="1" connectable="0" parent="fvo4OO7bao2VhtzqRqrc-20">
          <mxGeometry x="-0.3287" y="-1" relative="1" as="geometry">
            <mxPoint x="53" y="-21" as="offset" />
          </mxGeometry>
        </mxCell>
        <mxCell id="fvo4OO7bao2VhtzqRqrc-22" value="" style="endArrow=none;html=1;rounded=0;startArrow=classic;startFill=1;endFill=0;" edge="1" parent="WIyWlLk6GJQsqaUBKTNV-1">
          <mxGeometry width="50" height="50" relative="1" as="geometry">
            <mxPoint x="120" y="380" as="sourcePoint" />
            <mxPoint x="410" y="380" as="targetPoint" />
            <Array as="points">
              <mxPoint x="270" y="380" />
            </Array>
          </mxGeometry>
        </mxCell>
        <mxCell id="fvo4OO7bao2VhtzqRqrc-24" value="&lt;font style=&quot;font-size: 14px;&quot;&gt;2.爬虫侧根据md5调用云天接口&lt;br&gt;获取预览链接和素材链接&lt;/font&gt;" style="text;html=1;align=center;verticalAlign=middle;resizable=0;points=[];autosize=1;strokeColor=none;fillColor=none;" vertex="1" parent="WIyWlLk6GJQsqaUBKTNV-1">
          <mxGeometry x="160" y="325" width="220" height="50" as="geometry" />
        </mxCell>
        <mxCell id="fvo4OO7bao2VhtzqRqrc-25" value="" style="endArrow=classic;html=1;rounded=0;" edge="1" parent="WIyWlLk6GJQsqaUBKTNV-1">
          <mxGeometry width="50" height="50" relative="1" as="geometry">
            <mxPoint x="410" y="450" as="sourcePoint" />
            <mxPoint x="730" y="450" as="targetPoint" />
          </mxGeometry>
        </mxCell>
        <mxCell id="fvo4OO7bao2VhtzqRqrc-26" value="&lt;font style=&quot;font-size: 14px;&quot;&gt;3.1爬虫侧返回的预览链接和素材链接&lt;/font&gt;" style="text;html=1;align=center;verticalAlign=middle;resizable=0;points=[];autosize=1;strokeColor=none;fillColor=none;" vertex="1" parent="WIyWlLk6GJQsqaUBKTNV-1">
          <mxGeometry x="430" y="410" width="250" height="30" as="geometry" />
        </mxCell>
        <mxCell id="fvo4OO7bao2VhtzqRqrc-28" value="" style="edgeStyle=orthogonalEdgeStyle;rounded=0;orthogonalLoop=1;jettySize=auto;html=1;endArrow=none;endFill=0;dashed=1;" edge="1" parent="WIyWlLk6GJQsqaUBKTNV-1" source="fvo4OO7bao2VhtzqRqrc-13" target="fvo4OO7bao2VhtzqRqrc-27">
          <mxGeometry relative="1" as="geometry">
            <mxPoint x="725" y="1040" as="targetPoint" />
            <mxPoint x="725" y="270" as="sourcePoint" />
          </mxGeometry>
        </mxCell>
        <mxCell id="fvo4OO7bao2VhtzqRqrc-27" value="" style="rounded=1;whiteSpace=wrap;html=1;" vertex="1" parent="WIyWlLk6GJQsqaUBKTNV-1">
          <mxGeometry x="710" y="460" width="30" height="160" as="geometry" />
        </mxCell>
        <mxCell id="fvo4OO7bao2VhtzqRqrc-30" value="" style="shape=curlyBracket;whiteSpace=wrap;html=1;rounded=1;flipH=1;labelPosition=right;verticalLabelPosition=middle;align=left;verticalAlign=middle;" vertex="1" parent="WIyWlLk6GJQsqaUBKTNV-1">
          <mxGeometry x="750" y="460" width="20" height="160" as="geometry" />
        </mxCell>
        <mxCell id="fvo4OO7bao2VhtzqRqrc-31" value="&lt;font style=&quot;font-size: 14px;&quot;&gt;3.3数据侧进行数据清洗，&lt;br&gt;把爬虫爬取的素材链接&lt;br&gt;填充到素材数据里并存储&lt;/font&gt;" style="text;html=1;align=center;verticalAlign=middle;resizable=0;points=[];autosize=1;strokeColor=none;fillColor=none;" vertex="1" parent="WIyWlLk6GJQsqaUBKTNV-1">
          <mxGeometry x="745" y="505" width="180" height="60" as="geometry" />
        </mxCell>
        <mxCell id="fvo4OO7bao2VhtzqRqrc-33" value="" style="endArrow=none;html=1;rounded=0;startArrow=classic;startFill=1;endFill=0;exitX=0.067;exitY=0.117;exitDx=0;exitDy=0;exitPerimeter=0;" edge="1" parent="WIyWlLk6GJQsqaUBKTNV-1" source="fvo4OO7bao2VhtzqRqrc-27">
          <mxGeometry width="50" height="50" relative="1" as="geometry">
            <mxPoint x="700" y="480" as="sourcePoint" />
            <mxPoint x="120" y="480" as="targetPoint" />
          </mxGeometry>
        </mxCell>
        <mxCell id="fvo4OO7bao2VhtzqRqrc-34" value="&lt;font style=&quot;font-size: 14px;&quot;&gt;3.2云天提供素材消耗信息&lt;/font&gt;" style="text;html=1;align=center;verticalAlign=middle;resizable=0;points=[];autosize=1;strokeColor=none;fillColor=none;" vertex="1" parent="WIyWlLk6GJQsqaUBKTNV-1">
          <mxGeometry x="175" y="450" width="180" height="30" as="geometry" />
        </mxCell>
        <mxCell id="fvo4OO7bao2VhtzqRqrc-35" value="" style="endArrow=classic;html=1;rounded=0;" edge="1" parent="WIyWlLk6GJQsqaUBKTNV-1">
          <mxGeometry width="50" height="50" relative="1" as="geometry">
            <mxPoint x="730" y="650" as="sourcePoint" />
            <mxPoint x="1070" y="650" as="targetPoint" />
          </mxGeometry>
        </mxCell>
        <mxCell id="fvo4OO7bao2VhtzqRqrc-36" value="&lt;font style=&quot;font-size: 14px;&quot;&gt;4.数据侧提供素材信息，包括关联信息，预览链接&lt;/font&gt;" style="text;html=1;align=center;verticalAlign=middle;resizable=0;points=[];autosize=1;strokeColor=none;fillColor=none;" vertex="1" parent="WIyWlLk6GJQsqaUBKTNV-1">
          <mxGeometry x="740" y="610" width="330" height="30" as="geometry" />
        </mxCell>
        <mxCell id="fvo4OO7bao2VhtzqRqrc-37" value="&lt;font style=&quot;font-size: 14px;&quot;&gt;步骤1只有上传到云天的素材md5，没有骏伯全量的素材md5&lt;/font&gt;" style="strokeWidth=2;html=1;shape=mxgraph.flowchart.document2;whiteSpace=wrap;size=0.25;fillColor=#fff2cc;strokeColor=#d6b656;" vertex="1" parent="WIyWlLk6GJQsqaUBKTNV-1">
          <mxGeometry x="190" y="140" width="120" height="100" as="geometry" />
        </mxCell>
        <mxCell id="fvo4OO7bao2VhtzqRqrc-39" value="&lt;font style=&quot;font-size: 14px;&quot;&gt;步骤3.2提供的素材消耗，包含了骏伯所有素材的素材信息&lt;/font&gt;" style="strokeWidth=2;html=1;shape=mxgraph.flowchart.document2;whiteSpace=wrap;size=0.25;fillColor=#fff2cc;strokeColor=#d6b656;" vertex="1" parent="WIyWlLk6GJQsqaUBKTNV-1">
          <mxGeometry x="170" y="505" width="120" height="100" as="geometry" />
        </mxCell>
        <mxCell id="fvo4OO7bao2VhtzqRqrc-40" value="" style="rounded=1;whiteSpace=wrap;html=1;arcSize=0;" vertex="1" parent="WIyWlLk6GJQsqaUBKTNV-1">
          <mxGeometry x="1060" y="660" width="30" height="60" as="geometry" />
        </mxCell>
        <mxCell id="fvo4OO7bao2VhtzqRqrc-42" value="" style="edgeStyle=orthogonalEdgeStyle;rounded=0;orthogonalLoop=1;jettySize=auto;html=1;dashed=1;endArrow=none;endFill=0;" edge="1" parent="WIyWlLk6GJQsqaUBKTNV-1" source="fvo4OO7bao2VhtzqRqrc-14" target="fvo4OO7bao2VhtzqRqrc-41">
          <mxGeometry relative="1" as="geometry">
            <mxPoint x="1075" y="1040" as="targetPoint" />
            <mxPoint x="1075" y="270" as="sourcePoint" />
          </mxGeometry>
        </mxCell>
        <mxCell id="fvo4OO7bao2VhtzqRqrc-41" value="" style="rounded=1;whiteSpace=wrap;html=1;arcSize=0;" vertex="1" parent="WIyWlLk6GJQsqaUBKTNV-1">
          <mxGeometry x="1060" y="730" width="30" height="60" as="geometry" />
        </mxCell>
        <mxCell id="fvo4OO7bao2VhtzqRqrc-43" value="" style="rounded=1;whiteSpace=wrap;html=1;arcSize=0;" vertex="1" parent="WIyWlLk6GJQsqaUBKTNV-1">
          <mxGeometry x="1060" y="800" width="30" height="60" as="geometry" />
        </mxCell>
        <mxCell id="fvo4OO7bao2VhtzqRqrc-45" value="" style="shape=curlyBracket;whiteSpace=wrap;html=1;rounded=1;flipH=1;labelPosition=right;verticalLabelPosition=middle;align=left;verticalAlign=middle;" vertex="1" parent="WIyWlLk6GJQsqaUBKTNV-1">
          <mxGeometry x="1100" y="660" width="20" height="60" as="geometry" />
        </mxCell>
        <mxCell id="fvo4OO7bao2VhtzqRqrc-46" value="&lt;font style=&quot;font-size: 14px;&quot;&gt;5.1创意新增或更新素材关联信息&lt;/font&gt;" style="text;html=1;align=center;verticalAlign=middle;resizable=0;points=[];autosize=1;strokeColor=none;fillColor=none;" vertex="1" parent="WIyWlLk6GJQsqaUBKTNV-1">
          <mxGeometry x="1110" y="675" width="220" height="30" as="geometry" />
        </mxCell>
        <mxCell id="fvo4OO7bao2VhtzqRqrc-49" value="" style="shape=curlyBracket;whiteSpace=wrap;html=1;rounded=1;flipH=1;labelPosition=right;verticalLabelPosition=middle;align=left;verticalAlign=middle;" vertex="1" parent="WIyWlLk6GJQsqaUBKTNV-1">
          <mxGeometry x="1100" y="730" width="20" height="60" as="geometry" />
        </mxCell>
        <mxCell id="fvo4OO7bao2VhtzqRqrc-50" value="&lt;font style=&quot;font-size: 14px;&quot;&gt;5.2记录关联信息变化日志&lt;/font&gt;" style="text;html=1;align=center;verticalAlign=middle;resizable=0;points=[];autosize=1;strokeColor=none;fillColor=none;" vertex="1" parent="WIyWlLk6GJQsqaUBKTNV-1">
          <mxGeometry x="1120" y="745" width="180" height="30" as="geometry" />
        </mxCell>
        <mxCell id="fvo4OO7bao2VhtzqRqrc-51" value="" style="shape=curlyBracket;whiteSpace=wrap;html=1;rounded=1;flipH=1;labelPosition=right;verticalLabelPosition=middle;align=left;verticalAlign=middle;" vertex="1" parent="WIyWlLk6GJQsqaUBKTNV-1">
          <mxGeometry x="1100" y="800" width="20" height="60" as="geometry" />
        </mxCell>
        <mxCell id="fvo4OO7bao2VhtzqRqrc-53" value="&lt;font style=&quot;font-size: 14px;&quot;&gt;5.3头条的预览和素材链接有时效性，&lt;br&gt;实时获取链接后存储，&lt;br&gt;并以后定时更新链接&lt;/font&gt;" style="text;html=1;align=center;verticalAlign=middle;resizable=0;points=[];autosize=1;strokeColor=none;fillColor=none;" vertex="1" parent="WIyWlLk6GJQsqaUBKTNV-1">
          <mxGeometry x="1110" y="800" width="250" height="60" as="geometry" />
        </mxCell>
        <mxCell id="fvo4OO7bao2VhtzqRqrc-54" value="" style="rounded=1;whiteSpace=wrap;html=1;arcSize=0;" vertex="1" parent="WIyWlLk6GJQsqaUBKTNV-1">
          <mxGeometry x="1060" y="870" width="30" height="60" as="geometry" />
        </mxCell>
        <mxCell id="fvo4OO7bao2VhtzqRqrc-55" value="" style="shape=curlyBracket;whiteSpace=wrap;html=1;rounded=1;flipH=1;labelPosition=right;verticalLabelPosition=middle;align=left;verticalAlign=middle;" vertex="1" parent="WIyWlLk6GJQsqaUBKTNV-1">
          <mxGeometry x="1100" y="870" width="20" height="60" as="geometry" />
        </mxCell>
        <mxCell id="fvo4OO7bao2VhtzqRqrc-57" value="&lt;font style=&quot;font-size: 14px;&quot;&gt;5.4批量插入素材信息&lt;/font&gt;" style="text;html=1;align=center;verticalAlign=middle;resizable=0;points=[];autosize=1;strokeColor=none;fillColor=none;" vertex="1" parent="WIyWlLk6GJQsqaUBKTNV-1">
          <mxGeometry x="1120" y="885" width="150" height="30" as="geometry" />
        </mxCell>
        <mxCell id="fvo4OO7bao2VhtzqRqrc-58" value="" style="rounded=1;whiteSpace=wrap;html=1;arcSize=0;" vertex="1" parent="WIyWlLk6GJQsqaUBKTNV-1">
          <mxGeometry x="1060" y="950" width="30" height="60" as="geometry" />
        </mxCell>
        <mxCell id="fvo4OO7bao2VhtzqRqrc-59" value="" style="shape=curlyBracket;whiteSpace=wrap;html=1;rounded=1;flipH=1;labelPosition=right;verticalLabelPosition=middle;align=left;verticalAlign=middle;" vertex="1" parent="WIyWlLk6GJQsqaUBKTNV-1">
          <mxGeometry x="1100" y="950" width="20" height="60" as="geometry" />
        </mxCell>
        <mxCell id="fvo4OO7bao2VhtzqRqrc-60" value="&lt;font style=&quot;font-size: 14px;&quot;&gt;5.5 查询展示素材信息，&lt;br&gt;用于手工认领&lt;/font&gt;" style="text;html=1;align=center;verticalAlign=middle;resizable=0;points=[];autosize=1;strokeColor=none;fillColor=none;" vertex="1" parent="WIyWlLk6GJQsqaUBKTNV-1">
          <mxGeometry x="1120" y="960" width="170" height="50" as="geometry" />
        </mxCell>
        <mxCell id="fvo4OO7bao2VhtzqRqrc-62" value="创意管理平台素材信息同步流程" style="text;strokeColor=none;fillColor=none;html=1;fontSize=24;fontStyle=1;verticalAlign=middle;align=center;" vertex="1" parent="WIyWlLk6GJQsqaUBKTNV-1">
          <mxGeometry x="550" y="60" width="100" height="40" as="geometry" />
        </mxCell>
        <mxCell id="fvo4OO7bao2VhtzqRqrc-68" value="&lt;div style=&quot;border-color: var(--border-color);&quot;&gt;&lt;b style=&quot;border-color: var(--border-color);&quot;&gt;&lt;font style=&quot;border-color: var(--border-color); font-size: 26px;&quot;&gt;问题2&lt;/font&gt;&lt;/b&gt;&lt;/div&gt;&lt;font style=&quot;border-color: var(--border-color); text-align: left; font-size: 15px;&quot;&gt;由于素材信息达到百万量级，且清洗完的时间是下午的16：30，业务此时往往在使用创意平台。为了防止同步素材消耗太多的系统资源，影响业务正常进行，采用了实时触发同步的策略。按不同查询条件查询不到素材时，根据这些条件从数据侧获取这部分数据进行同步处理，将消耗分摊下来。但这会导致每个查询组合第一次查询时，响应时间都比较长。原因在于：&lt;br style=&quot;border-color: var(--border-color);&quot;&gt;&lt;/font&gt;&lt;ol style=&quot;border-color: var(--border-color); text-align: left; font-size: 15px;&quot;&gt;&lt;li style=&quot;border-color: var(--border-color);&quot;&gt;&lt;font style=&quot;border-color: var(--border-color);&quot;&gt;即使是部分数据，往往也有好几万的素材；&lt;br style=&quot;border-color: var(--border-color);&quot;&gt;&lt;/font&gt;&lt;/li&gt;&lt;li style=&quot;border-color: var(--border-color);&quot;&gt;&lt;font style=&quot;border-color: var(--border-color);&quot;&gt;素材同步过程中的步骤比较多，既要更新关联信息，还要记录变更日志&lt;/font&gt;&lt;/li&gt;&lt;li style=&quot;border-color: var(--border-color);&quot;&gt;&lt;font style=&quot;border-color: var(--border-color);&quot;&gt;头条的素材在同步时需要实时获取链接，媒体对接平台平均相应近0.5s，批量请求长度限制在了100条，且高并发请求可能会有性能问题出现，因此需限制qps。批量请求时，同一媒体账号的素材才能同一批次。&lt;/font&gt;&lt;/li&gt;&lt;/ol&gt;" style="shape=note;whiteSpace=wrap;html=1;backgroundOutline=1;fontColor=#000000;darkOpacity=0.05;fillColor=#FFF9B2;strokeColor=none;fillStyle=solid;direction=west;gradientDirection=north;gradientColor=#FFF2A1;shadow=1;size=20;pointerEvents=1;" vertex="1" parent="WIyWlLk6GJQsqaUBKTNV-1">
          <mxGeometry x="620" y="690" width="370" height="380" as="geometry" />
        </mxCell>
        <mxCell id="fvo4OO7bao2VhtzqRqrc-70" value="&lt;div style=&quot;border-color: var(--border-color);&quot;&gt;&lt;font style=&quot;border-color: var(--border-color);&quot;&gt;&lt;b style=&quot;border-color: var(--border-color); font-size: 24px;&quot;&gt;问题1&lt;/b&gt;&lt;/font&gt;&lt;br style=&quot;border-color: var(--border-color);&quot;&gt;&lt;div style=&quot;border-color: var(--border-color); text-align: left; font-size: 15px;&quot;&gt;由于爬虫获取到的云天的素材md5不包含未上传到云天的素材，而数据侧消耗表里时包含了未上传到云天的素材，这就导致了快手和广点通待认领的素材没有爬取到缩略图和预览链接，返回给创意平台后无法正常认领（头条由于不是永久链接，需要实时获取和更新链接，因此没有这个问题）。对此的解决方案有：&lt;/div&gt;&lt;div style=&quot;border-color: var(--border-color); text-align: left; font-size: 15px;&quot;&gt;&lt;ol style=&quot;border-color: var(--border-color);&quot;&gt;&lt;li style=&quot;border-color: var(--border-color);&quot;&gt;爬虫侧保障爬全素材链接。但爬虫自身不存数据，云天无法提供全量md5的情况下，如果使用消耗表的md5，会出现多次爬同一素材链接的情况。&lt;/li&gt;&lt;li style=&quot;border-color: var(--border-color);&quot;&gt;&lt;span style=&quot;border-color: var(--border-color); background-color: initial;&quot;&gt;创意侧实时获取，但是有额外的性能消耗，且快手、广点通的素材链接都是永久有效，理应数存储下来。&lt;/span&gt;&lt;/li&gt;&lt;li style=&quot;border-color: var(--border-color);&quot;&gt;&lt;span style=&quot;border-color: var(--border-color); background-color: initial;&quot;&gt;创意侧自身存储。在入库前需要获取广点通、快手未上传到云天的素材的来链接，又加大了第一次查询的响应时间，业务无法接受响应时间过长。&lt;/span&gt;&lt;/li&gt;&lt;/ol&gt;&lt;/div&gt;&lt;/div&gt;" style="shape=note;whiteSpace=wrap;html=1;backgroundOutline=1;darkOpacity=0.05;fillColor=#f8cecc;strokeColor=#b85450;fillStyle=solid;direction=west;gradientDirection=north;shadow=1;size=20;pointerEvents=1;" vertex="1" parent="WIyWlLk6GJQsqaUBKTNV-1">
          <mxGeometry x="160" y="690" width="370" height="380" as="geometry" />
        </mxCell>
      </root>
    </mxGraphModel>
  </diagram>
</mxfile>
